<?xml version="1.0" standalone="no"?>
<!DOCTYPE svg PUBLIC "-//W3C//DTD SVG 20010904//EN"
 "http://www.w3.org/TR/2001/REC-SVG-20010904/DTD/svg10.dtd">
<svg version="1.0" xmlns="http://www.w3.org/2000/svg"
 width="1280.000000pt" height="914.000000pt" viewBox="0 0 1280.000000 914.000000"
 preserveAspectRatio="xMidYMid meet">
<metadata>
Created by potrace 1.15, written by Peter Selinger 2001-2017
</metadata>
<g transform="translate(0.000000,914.000000) scale(0.100000,-0.100000)"
fill="#000000" stroke="none">
<path d="M8892 7877 c-694 -694 -1262 -1267 -1262 -1272 0 -14 912 -925 926
-925 10 0 224 223 224 234 0 4 -49 91 -110 193 -60 103 -110 189 -110 192 0 4
297 303 660 666 l660 660 -158 158 -157 158 449 446 449 445 -154 154 -154
154 -1263 -1263z"/>
<path d="M2243 8906 c-91 -29 -176 -107 -221 -204 l-27 -57 0 -1765 0 -1765
27 -57 c35 -76 107 -151 177 -185 l56 -28 1594 0 1595 0 148 215 148 215 0
553 0 552 -110 0 -110 0 0 -550 0 -550 -110 0 -110 0 0 550 0 550 -110 0 -110
0 0 -550 0 -550 -110 0 -110 0 0 550 0 550 -110 0 -110 0 0 -550 0 -550 -110
0 -110 0 0 550 0 550 -110 0 -110 0 0 -550 0 -550 -110 0 -110 0 0 550 0 550
-110 0 -110 0 0 -550 0 -550 -110 0 -110 0 0 550 0 550 -110 0 -110 0 0 -550
0 -550 -388 0 -388 0 -52 53 -52 53 0 390 0 390 55 27 55 27 -2 302 -3 303
-52 28 -53 28 0 309 0 308 56 51 56 51 408 0 409 0 5 33 c3 17 8 79 11 137 3
58 8 142 11 187 l6 83 207 2 206 3 27 205 c14 113 27 211 27 218 1 9 140 12
661 12 l660 0 4 -22 c3 -13 15 -102 26 -198 11 -96 23 -185 26 -197 4 -23 5
-23 208 -23 l204 0 6 -62 c3 -35 8 -108 11 -163 3 -55 8 -126 11 -157 l6 -58
412 0 413 0 56 -59 57 -60 0 -300 0 -301 -55 -27 -54 -27 -3 -188 c-2 -103 -1
-188 2 -188 3 0 40 54 83 119 l78 119 195 152 194 153 0 807 c0 784 -1 810
-20 874 -26 83 -104 172 -188 213 l-57 28 -2260 2 c-1839 1 -2268 -1 -2302
-11z"/>
<path d="M10220 8285 l-385 -385 77 -77 78 -77 36 34 c20 19 194 196 387 393
l350 358 -69 70 c-37 38 -73 69 -79 69 -5 0 -183 -173 -395 -385z"/>
<path d="M10537 7972 l-387 -387 77 -77 78 -77 387 393 387 393 -72 71 c-40
40 -75 72 -77 72 -3 0 -179 -174 -393 -388z"/>
<path d="M10855 7660 l-390 -390 75 -75 75 -75 385 385 c212 212 386 389 388
393 1 4 -31 40 -71 80 l-72 72 -390 -390z"/>
<path d="M11163 7351 l-393 -387 78 -77 77 -77 390 390 390 390 -75 74 -75 74
-392 -387z"/>
<path d="M9431 6866 l-605 -605 119 -196 119 -196 -545 -545 -544 -544 233
-232 232 -233 544 544 c525 524 544 543 567 530 13 -7 94 -54 179 -104 85 -50
164 -97 176 -103 18 -10 75 44 622 591 l602 602 -548 548 -547 547 -604 -604z"/>
<path d="M11475 7040 l-390 -390 75 -75 c41 -41 77 -74 80 -73 3 2 178 177
390 391 l384 387 -74 75 -75 75 -390 -390z"/>
<path d="M11787 6722 l-387 -387 78 -78 79 -78 387 392 387 393 -73 73 c-40
40 -75 73 -78 73 -3 0 -179 -174 -393 -388z"/>
<path d="M12047 6353 l-447 -448 -160 160 -160 160 -663 -663 c-364 -364 -667
-660 -673 -658 -5 2 -93 54 -194 116 l-183 112 -119 -119 -118 -118 468 -468
467 -467 1268 1268 1267 1267 -153 153 -152 152 -448 -447z"/>
<path d="M7091 6585 l-172 -134 -436 -656 -436 -657 494 -494 494 -495 -120
-114 -120 -114 -465 465 c-256 255 -468 464 -472 464 -9 0 -248 -355 -248
-367 0 -4 195 -204 434 -443 l435 -435 -114 -120 -114 -120 -415 415 c-228
228 -417 412 -419 410 -2 -3 -58 -86 -125 -186 l-120 -181 379 -379 c208 -208
379 -383 379 -389 0 -6 -52 -62 -115 -125 l-115 -115 -359 359 -359 359 -69
-104 c-38 -57 -94 -142 -123 -187 l-53 -84 327 -327 326 -326 -120 -120 -120
-120 -305 305 c-167 167 -306 302 -308 300 -14 -16 -229 -344 -234 -357 -4
-10 77 -97 266 -287 l272 -272 -153 -150 c-176 -172 -272 -252 -448 -369 -276
-184 -560 -298 -875 -351 -136 -23 -432 -23 -570 0 -454 76 -861 296 -1201
647 -405 420 -656 966 -724 1574 -13 115 -13 442 0 565 61 579 301 1136 707
1637 l83 103 0 411 0 410 -28 -21 c-82 -65 -325 -299 -449 -432 -677 -730
-1041 -1455 -1159 -2308 -22 -157 -25 -593 -6 -750 94 -759 404 -1412 927
-1949 423 -435 943 -739 1503 -880 1072 -271 2158 73 3049 964 l131 132 268
-268 c148 -148 272 -269 276 -269 3 0 90 55 193 122 l186 122 -300 300 c-166
166 -301 306 -301 311 0 12 212 225 224 225 4 0 154 -146 333 -324 l325 -325
184 122 c101 67 184 125 184 129 0 3 -160 163 -355 354 -195 191 -355 353
-355 359 0 5 52 62 115 125 l115 115 384 -384 383 -383 188 123 188 123 -418
414 -417 415 118 118 119 119 439 -439 439 -439 181 120 c100 67 183 123 186
125 2 2 -207 215 -465 473 l-470 470 120 120 120 120 490 -490 c270 -269 493
-490 497 -490 3 0 300 195 660 434 l653 434 132 173 132 174 -584 585 -585
585 -450 -450 -450 -450 -390 390 -390 390 445 445 c245 245 445 450 445 455
0 11 -1141 1155 -1151 1155 -3 0 -83 -61 -178 -135z"/>
</g>
</svg>
